<?xml version="1.0" encoding="UTF-8"?> <svg xmlns="http://www.w3.org/2000/svg" id="Layer_1" data-name="Layer 1" viewBox="0 0 681 120"><defs><style>.cls-1{fill:#eabc07;}.cls-2{fill:#2092c0;}.cls-3{fill:#002855;}</style></defs><path class="cls-1" d="M138.47,44.47V83A6.46,6.46,0,0,1,132,89.45H108.49A6.45,6.45,0,0,1,102.06,83V66.71a12.74,12.74,0,0,1,5.49-9.79L133,41.39C136,39.55,138.47,40.93,138.47,44.47Z"></path><path class="cls-2" d="M120.33,27.44V90.21c0,5.47-3.09,7.68-6.86,7.68H88.38c-3.77,0-6.86-2.63-6.86-8.1V49.26c0-5.47,2.19-7.72,5.49-10.35L113.9,22.48C117.89,19.8,120.33,21.92,120.33,27.44Z"></path><path class="cls-3" d="M200,84h-4.53L170.91,61.33V83.88h-3.59V38.06h3.59V59l22.61-20.91h4.33v.33L174.43,60,200,83.69Z"></path><path class="cls-3" d="M203.7,51.57v5.76c2.53-4.45,7.12-6.29,11.71-6.35,8.78,0,14.83,5.31,14.83,14.29V84H227V65.33c0-7.34-4.59-11.27-11.71-11.21-6.78.07-11.5,5.12-11.5,11.8V84h-3.26V51.57Z"></path><path class="cls-3" d="M235,67.82C235,57.53,242.48,51,251.72,51s16.7,6.55,16.7,16.84S261,84.41,251.72,84.41,235,78.11,235,67.82Zm30.19,0c0-8.39-6.05-13.83-13.5-13.83s-13.5,5.44-13.5,13.83,6.05,13.44,13.5,13.44S265.22,76.21,265.22,67.82Z"></path><path class="cls-3" d="M306.26,84h-3.59l-5.32-14.16-4-12.59-4.13,12.65L283.91,84h-3.59l-11.7-32.38h3.59l9.91,28.64,10-28.64h2.33l10,28.64,9.84-28.64h3.59Z"></path><path class="cls-3" d="M324.29,38.06V84H321V38.06Z"></path><path class="cls-3" d="M329.34,67.76A16.4,16.4,0,0,1,346,51c9.24,0,17.49,5.57,16.23,18.22h-29.6c.66,7.61,6.58,12,13.37,12,4.32,0,9.37-1.7,11.84-4.92l2.32,1.84c-3.19,4.13-8.91,6.23-14.16,6.23C336.79,84.41,329.34,78.05,329.34,67.76Zm30-1.31C359.27,58.45,354,54,346,54c-6.79,0-12.64,4.52-13.37,12.46Z"></path><path class="cls-3" d="M400,38.06V84h-3.19V76.8a15.51,15.51,0,0,1-13.7,7.67c-9.18,0-16.43-6-16.43-16.71S374,51,383.22,51c5.65,0,11,2.36,13.63,7.61V38.06Zm-30.13,29.7c0,9,6.06,13.57,13.44,13.57,7.71,0,13.43-5.58,13.43-13.64s-5.85-13.57-13.43-13.57C376,54.12,369.91,58.65,369.91,67.76Z"></path><path class="cls-3" d="M433.63,50.26l2.13,1.83-3.19,3.67c2.33,2.49,4.06,5.77,4.06,11a15.31,15.31,0,0,1-8.85,13.77c5.79,2,9,6,9,11.6,0,8.72-6.92,12.92-15.63,12.92s-15.57-4.72-15.57-12.92h3.26c0,6.62,5.72,9.77,12.31,9.77s12.44-2.88,12.44-9.77-6.32-9.7-12.44-9.7c-9.51,0-15.43-7-15.43-15.67,0-10.09,6.91-15.79,15.43-15.79a16.86,16.86,0,0,1,9.31,3ZM409,66.77c0,6.69,4.65,12.46,12.17,12.46a12.51,12.51,0,0,0,12.3-12.46c0-8.19-5.52-12.58-12.3-12.58S409,58.32,409,66.77Z"></path><path class="cls-3" d="M439.29,67.76A16.4,16.4,0,0,1,456,51c9.25,0,17.49,5.57,16.23,18.22h-29.6c.67,7.61,6.59,12,13.37,12,4.32,0,9.38-1.7,11.84-4.92l2.33,1.84c-3.19,4.13-8.91,6.23-14.17,6.23C446.74,84.41,439.29,78.05,439.29,67.76Zm30-1.31C469.22,58.45,463.9,54,456,54c-6.78,0-12.64,4.52-13.37,12.46Z"></path><path class="cls-3" d="M499,71H486.33V84h-8.41V40c7,0,14-.07,21-.07C520.73,39.93,520.8,71,499,71Zm-12.62-7.59H499c10.76,0,10.7-15.58,0-15.58H486.33Z"></path><path class="cls-3" d="M526.72,44.26c0,6-9.17,6-9.17,0S526.72,38.3,526.72,44.26Zm-8.47,8.61V84H526V52.87Z"></path><path class="cls-3" d="M538.57,40.06V84h-7.71V40.06Z"></path><path class="cls-3" d="M550.93,40.06V84h-7.71V40.06Z"></path><path class="cls-3" d="M580.48,53h7.46V84h-7.33l-.38-4.52c-1.78,3.64-6.69,5.4-10.19,5.46-9.3.06-16.18-5.59-16.18-16.45,0-10.68,7.19-16.26,16.37-16.2,4.2,0,8.22,1.95,10,5ZM561.63,68.44c0,5.9,4.14,9.42,9.3,9.42,12.23,0,12.23-18.78,0-18.78C565.77,59.08,561.63,62.54,561.63,68.44Z"></path><path class="cls-3" d="M599.53,53l.57,3.58c2.42-3.83,5.67-4.39,8.86-4.39a12,12,0,0,1,8.09,3l-3.51,6.65a7.85,7.85,0,0,0-5.6-2c-4.08,0-7.84,2.14-7.84,7.85V84h-7.77V53Z"></path><path class="cls-3" d="M638.32,61.22a10.68,10.68,0,0,0-7.77-2.76c-3.69,0-5.73,1.13-5.73,3.07s1.85,3.14,5.86,3.39c5.92.38,13.44,1.7,13.44,9.92,0,5.47-4.52,10.18-13.5,10.18-5,0-9.94-.82-14.53-5.53L619.91,74c2.23,2.45,7.33,4.27,10.83,4.33,2.93.06,5.67-1.44,5.67-3.7s-1.78-3-6.24-3.27c-5.92-.44-13-2.57-13-9.61s7.52-9.67,13.25-9.67c4.91,0,8.6,1,12.24,4.09Z"></path><path class="cls-3" d="M97,27.15V94.34a11.25,11.25,0,0,1-11.22,11.22h-41A11.25,11.25,0,0,1,33.51,94.34V65.92c0-6.18,4.3-13.86,9.57-17.07L87.41,21.77C92.68,18.56,97,21,97,27.15Z"></path></svg> 